<svg width="150" height="48" viewBox="0 0 150 48" fill="none" xmlns="http://www.w3.org/2000/svg">
<g clip-path="url(#clip0_416_13186)">
<path d="M1.61135 47.0348H5.39717C5.48849 47.0348 5.54868 46.9749 5.54868 46.8839V45.0667C5.54868 44.9757 5.48849 44.9158 5.39717 44.9158H3.66408C3.57275 44.9158 3.51256 44.8558 3.51256 44.7649V42.7203C3.51256 42.6293 3.57275 42.5693 3.66408 42.5693H5.26018C5.35151 42.5693 5.4117 42.5094 5.4117 42.4184V40.6178C5.4117 40.5268 5.35151 40.4669 5.26018 40.4669H3.66408C3.57275 40.4669 3.51256 40.4069 3.51256 40.3159V38.8461C3.51256 38.6497 3.61841 38.5442 3.93805 38.5442C4.31788 38.5442 4.86582 38.6207 5.29131 38.8771C5.45943 38.968 5.55076 38.937 5.55076 38.7716V36.5906C5.55076 36.4996 5.49057 36.4397 5.39924 36.4397H1.30832C1.17133 36.4397 1.09454 36.5306 1.12567 36.6671C1.26266 37.3038 1.30832 37.6656 1.30832 38.968V46.735C1.30832 46.9314 1.41417 47.0369 1.61135 47.0369V47.0348Z" fill="#0213B0"/>
<path d="M7.96845 47.186C9.6704 47.186 10.6584 45.8546 10.6584 44.0519C10.6584 42.7184 10.0959 41.9163 9.44209 41.1597L9.25944 40.9467C8.7115 40.3265 8.3628 39.8862 8.3628 39.3115C8.3628 38.9476 8.54545 38.5693 8.97094 38.5693C9.35077 38.5693 9.57908 38.7657 9.88211 39.206C10.0959 39.5244 10.1416 39.5844 10.2619 39.5844C10.3989 39.5844 10.4446 39.4768 10.4446 39.3115V37.5108C10.4446 37.2379 10.3989 36.996 10.2017 36.7686C9.92777 36.4813 9.42549 36.2849 8.77376 36.2849C7.07181 36.2849 6.1129 37.6328 6.1129 39.45C6.1129 40.7979 6.75217 41.6765 7.37484 42.3877L7.46616 42.4931C7.96845 43.0678 8.39394 43.5371 8.39394 44.1139C8.39394 44.4612 8.22582 44.9016 7.75466 44.9016C7.28351 44.9016 6.99501 44.5542 6.67537 44.0395C6.49272 43.7211 6.46159 43.6301 6.3246 43.6301C6.17309 43.6301 6.12743 43.7811 6.12743 43.932V45.96C6.12743 46.2329 6.17309 46.4748 6.37027 46.6857C6.64424 46.9875 7.17143 47.186 7.96637 47.186H7.96845Z" fill="#0213B0"/>
<path d="M12.7947 47.0349H14.3908C14.588 47.0349 14.6959 46.9294 14.6959 46.733V38.7531C14.6959 38.6477 14.7104 38.5567 14.8931 38.5567C15.1961 38.5567 15.441 38.7221 15.9122 38.9495C16.0803 39.026 16.1696 38.9495 16.1696 38.7841V36.5886C16.1696 36.4976 16.1094 36.4377 16.018 36.4377H11.1695C11.0782 36.4377 11.018 36.4976 11.018 36.5886V38.7841C11.018 38.9516 11.1093 39.026 11.2775 38.9495C11.7486 38.7221 11.9915 38.5567 12.2966 38.5567C12.4792 38.5567 12.4937 38.6477 12.4937 38.7531V46.733C12.4937 46.9294 12.5996 47.0349 12.7968 47.0349H12.7947Z" fill="#0213B0"/>
<path d="M129.675 47.0349C129.873 47.0349 129.979 46.9294 129.979 46.733V36.7395C129.979 36.5431 129.873 36.4377 129.675 36.4377H128.384C128.202 36.4377 128.142 36.5142 128.019 36.7705C127.685 37.4817 127.334 38.0729 126.834 38.6477C126.651 38.8606 126.62 38.9805 126.62 39.2844V41.42C126.62 41.5874 126.68 41.6763 126.772 41.6763C126.923 41.6763 127.029 41.4799 127.455 40.8432L127.774 40.3739C127.834 40.2829 127.866 40.2685 127.897 40.2685C127.957 40.2685 127.957 40.345 127.957 40.4504V46.733C127.957 46.9294 128.063 47.0349 128.26 47.0349H129.675Z" fill="#0213B0"/>
<path d="M133.231 36.2849C131.423 36.2849 130.601 37.6783 130.601 39.9647C130.601 42.0383 131.286 43.3552 132.592 43.3552C133.077 43.3552 133.457 43.1422 133.702 42.8549C133.793 42.7494 133.885 42.7329 133.885 42.9769C133.885 44.3392 133.445 45.1269 132.714 45.1269C132.243 45.1269 132.015 44.8251 131.68 44.3103C131.558 44.1284 131.467 44.0229 131.346 44.0229C131.209 44.0229 131.149 44.1594 131.149 44.3558V46.0365C131.149 46.3838 131.226 46.6278 131.483 46.8242C131.741 47.0206 132.228 47.188 132.866 47.188C135.01 47.188 136.027 45.2654 136.027 41.2692C136.027 37.8767 135.161 36.289 133.229 36.289L133.231 36.2849ZM132.76 39.8572C132.76 38.2985 132.973 37.9491 133.262 37.9491C133.565 37.9491 133.779 38.3129 133.779 39.8572C133.779 41.4015 133.565 41.7654 133.262 41.7654C132.959 41.7654 132.76 41.4181 132.76 39.8572Z" fill="#0213B0"/>
<path d="M137.083 47.0348H138.634C138.908 47.0348 138.983 46.9583 138.983 46.6875C138.968 43.9007 139.682 41.3269 140.973 38.6931C141.11 38.4202 141.156 38.2238 141.156 37.9364V36.7415C141.156 36.5451 141.05 36.4397 140.853 36.4397H136.567C136.369 36.4397 136.264 36.5451 136.264 36.7415V38.3458C136.264 38.5422 136.369 38.6476 136.567 38.6476H138.588C138.908 38.6476 138.862 38.7985 138.74 39.0259C137.418 41.5088 136.778 43.9627 136.704 46.6565C136.689 46.9583 136.795 47.0348 137.083 47.0348Z" fill="#0213B0"/>
<path d="M143.995 47.186C145.805 47.186 146.625 45.7926 146.625 43.5061C146.625 41.4326 145.94 40.1157 144.634 40.1157C144.149 40.1157 143.769 40.3286 143.524 40.616C143.433 40.7214 143.341 40.7379 143.341 40.494C143.341 39.1316 143.781 38.3439 144.512 38.3439C144.983 38.3439 145.211 38.6458 145.545 39.1626C145.668 39.3445 145.759 39.45 145.88 39.45C146.017 39.45 146.077 39.3135 146.077 39.1171V37.4364C146.077 37.0891 146 36.8451 145.743 36.6487C145.485 36.4523 144.998 36.2849 144.36 36.2849C142.216 36.2849 141.199 38.2075 141.199 42.2037C141.199 45.5962 142.067 47.1839 143.997 47.1839L143.995 47.186ZM143.447 43.6136C143.447 42.0693 143.661 41.7054 143.964 41.7054C144.267 41.7054 144.466 42.0528 144.466 43.6136C144.466 45.1744 144.252 45.5218 143.964 45.5218C143.661 45.5218 143.447 45.1579 143.447 43.6136Z" fill="#0213B0"/>
<path d="M30.8144 8.49125C30.0049 8.83236 29.073 9.01842 28.0518 9.01842C27.0306 9.01842 26.0966 8.83443 25.2871 8.49539C24.6022 8.20803 24.0563 8.54914 24.0563 9.28718V31.4822C24.0563 31.968 24.4507 32.3608 24.9384 32.3608H31.163C31.6508 32.3608 32.0452 31.968 32.0452 31.4822V9.28304C32.0452 8.54294 31.4972 8.20182 30.8123 8.49125H30.8144Z" fill="#0213B0"/>
<path d="M28.0165 0C25.3992 0 23.6682 1.40786 23.7388 3.73155C23.8094 5.94981 25.4366 7.4631 28.0518 7.4631C30.667 7.4631 32.3295 5.94981 32.3295 3.73155C32.3295 1.51329 30.6338 0 28.0165 0Z" fill="#0213B0"/>
<path d="M113.274 8.49125C112.465 8.83236 111.533 9.01842 110.512 9.01842C109.491 9.01842 108.557 8.83443 107.747 8.49539C107.062 8.20803 106.516 8.54914 106.516 9.28718V31.4822C106.516 31.968 106.911 32.3608 107.399 32.3608H113.623C114.111 32.3608 114.505 31.968 114.505 31.4822V9.28304C114.505 8.54294 113.957 8.20182 113.272 8.49125H113.274Z" fill="#0213B0"/>
<path d="M110.476 0C107.861 0 106.128 1.40786 106.199 3.73155C106.269 5.94981 107.896 7.4631 110.512 7.4631C113.127 7.4631 114.789 5.94981 114.789 3.73155C114.789 1.51329 113.092 0 110.476 0Z" fill="#0213B0"/>
<path d="M123.66 0.472915H116.744C116.136 0.472915 115.75 1.00009 115.885 1.55C116.342 3.41681 116.553 5.67021 116.553 8.71334V31.481C116.553 31.9668 116.948 32.3596 117.435 32.3596H123.66C124.148 32.3596 124.542 31.9668 124.542 31.481V1.3536C124.542 0.867777 124.148 0.474982 123.66 0.474982V0.472915Z" fill="#0213B0"/>
<path d="M22.3627 0.472915H13.772C13.2095 0.472915 12.8359 0.954605 13.0144 1.50245C13.5976 3.28036 13.5457 4.87015 13.4295 6.3545L12.0866 23.8401C12.0472 24.3466 11.4204 24.3466 11.383 23.8401L10.0546 6.3545C9.9384 4.87015 9.88651 3.28243 10.4697 1.50245C10.6503 0.954605 10.2767 0.472915 9.71217 0.472915H0.888971C0.231019 0.472915 -0.182017 1.07865 0.0795033 1.69885C0.861989 3.55946 1.24182 5.38699 1.4639 6.91682L5.11896 31.237C5.21651 31.882 5.77276 32.3596 6.42864 32.3596H16.8085C17.4644 32.3596 18.0206 31.882 18.1182 31.237L21.7878 6.91682C22.0119 5.38699 22.3918 3.55946 23.1722 1.69885C23.4337 1.07658 23.0186 0.472915 22.3627 0.472915Z" fill="#0213B0"/>
<path d="M146.572 31.285L139.683 18.4179C139.519 18.114 139.436 17.8245 139.436 17.5723C139.436 16.8322 139.955 16.1872 141.333 16.1872C142.052 16.1872 142.591 16.2596 143.307 16.4125C143.764 16.5097 144.196 16.241 144.196 15.6972V8.9205C144.196 8.11011 143.401 7.95919 142.485 7.95919C137.508 7.95919 136.032 11.5109 135.717 15.23C135.622 16.3547 135.339 16.8343 134.843 16.8343C134.681 16.8343 134.578 16.733 134.578 16.5035V1.35403C134.578 0.868207 134.183 0.475412 133.695 0.475412H126.78C126.172 0.475412 125.785 1.00258 125.92 1.5525C126.377 3.41931 126.589 5.67271 126.589 8.71584V31.4835C126.589 31.9693 126.983 32.3621 127.471 32.3621H133.695C134.183 32.3621 134.578 31.9693 134.578 31.4835V23.8943C134.578 23.6296 134.856 23.5449 134.947 23.7971L137.855 31.5703C138.017 32.0458 138.465 32.3642 138.969 32.3642H145.925C146.518 32.3642 146.836 31.775 146.574 31.2871L146.572 31.285Z" fill="#0213B0"/>
<path d="M47.4439 7.95666C45.3123 7.95666 43.5128 8.49623 42.0454 9.98265C41.9063 10.1232 41.6676 10.024 41.6676 9.8276V9.29216C41.6676 8.80633 41.2733 8.41354 40.7855 8.41354H34.2807C33.6705 8.41354 33.2865 8.94484 33.4235 9.49682C33.8801 11.3616 34.0898 13.6129 34.0898 16.654V31.4809C34.0898 31.9668 34.4841 32.3596 34.9719 32.3596H41.1965C41.6842 32.3596 42.0786 31.9668 42.0786 31.4809V15.7381C42.0786 14.6197 42.6805 13.9768 43.6353 13.9768C44.5195 13.9768 45.084 14.6176 45.084 15.7381V31.4809C45.084 31.9668 45.4784 32.3596 45.9661 32.3596H52.1907C52.6785 32.3596 53.0728 31.9668 53.0728 31.4809V13.9437C53.0728 10.0943 50.8333 7.95666 47.4398 7.95666H47.4439Z" fill="#0213B0"/>
<path d="M99.0441 7.95666C96.8212 7.95666 94.9013 8.82907 93.656 10.1108C93.5086 10.2617 93.3114 10.2514 93.1952 10.0653C92.3317 8.6947 90.8145 7.95666 88.6974 7.95666C86.5804 7.95666 84.8307 8.8022 83.5604 10.0199C83.4214 10.1542 83.1868 10.055 83.1868 9.86068V9.29422C83.1868 8.8084 82.7925 8.4156 82.3047 8.4156H75.7999C75.1897 8.4156 74.8057 8.94691 74.9427 9.49889C75.3993 11.3636 75.609 13.615 75.609 16.656V31.483C75.609 31.9688 76.0033 32.3616 76.4911 32.3616H82.7157C83.2034 32.3616 83.5978 31.9688 83.5978 31.483V15.7361C83.5978 14.6983 83.9652 13.9809 84.9178 13.9809C85.802 13.9809 86.0739 14.7003 86.0739 15.7423V31.4851C86.0739 31.9709 86.4683 32.3637 86.956 32.3637H93.1806C93.6684 32.3637 94.0628 31.9709 94.0628 31.4851V15.6968C94.0731 14.6859 94.4426 13.983 95.3828 13.983C96.267 13.983 96.5389 14.7024 96.5389 15.7443V31.4871C96.5389 31.973 96.9333 32.3658 97.421 32.3658H103.646C104.133 32.3658 104.528 31.973 104.528 31.4871V13.9499C104.528 10.2431 102.618 7.96286 99.042 7.96286L99.0441 7.95666Z" fill="#0213B0"/>
<path d="M65.0922 7.95666C62.2777 7.95666 59.0004 8.55825 56.3852 10.7083C56.1133 10.9336 55.9535 11.2665 55.9535 11.6179V16.9971C55.9535 17.6401 56.6883 17.9957 57.1947 17.5615C59.8078 15.3205 62.3753 14.0119 64.2267 14.0119C65.2167 14.0119 65.8186 14.2786 65.8186 15.0497C65.8186 16.2694 64.0856 16.7594 60.8851 18.2003C57.8236 19.5772 54.4695 21.6052 54.4695 26.232C54.4695 30.4225 57.0889 32.7586 60.5156 32.7586C63.245 32.7586 64.6999 31.8055 65.7688 30.5837C65.9017 30.4307 66.1549 30.5258 66.1549 30.7284V31.4809C66.1549 31.9668 66.5492 32.3596 67.037 32.3596H72.7489C73.2367 32.3596 73.6311 31.9668 73.6311 31.4809V16.0276C73.6311 10.4891 70.8975 7.95666 65.0922 7.95666ZM66.0034 24.3093C66.0034 26.0004 65.1545 26.9224 63.9963 26.9224C63.1474 26.9224 62.3753 26.3457 62.3753 25.1942C62.3753 23.3418 64.235 22.2978 65.7128 21.0305C65.827 20.9334 66.0034 21.014 66.0034 21.1649V24.3093Z" fill="#0213B0"/>
<path d="M142.112 4.77344C140.829 4.77344 139.86 3.86381 139.86 2.54485C139.86 1.22588 140.802 0.316253 142.112 0.316253C143.422 0.316253 144.364 1.27343 144.364 2.54485C144.364 3.81626 143.422 4.77344 142.112 4.77344ZM142.112 0.725587C141.037 0.725587 140.331 1.48223 140.331 2.54485C140.331 3.60746 141.037 4.36411 142.112 4.36411C143.187 4.36411 143.893 3.60746 143.893 2.54485C143.893 1.48223 143.187 0.725587 142.112 0.725587Z" fill="#0213B0"/>
<path d="M142.749 2.92692C142.743 2.91658 142.749 2.90211 142.76 2.89591C143.054 2.75533 143.214 2.47624 143.214 2.12479C143.214 1.91806 143.144 1.24411 142.243 1.24411H141.257C141.205 1.24411 141.188 1.27718 141.205 1.31646C141.253 1.43637 141.276 1.51079 141.276 1.77955V3.66496C141.276 3.69804 141.303 3.72491 141.336 3.72491H141.817C141.85 3.72491 141.877 3.69804 141.877 3.66496V3.02202C141.877 3.00961 141.888 2.99928 141.9 2.99928H142.108C142.118 2.99928 142.129 3.00548 142.135 3.01582L142.459 3.68564C142.471 3.70838 142.494 3.72491 142.521 3.72491H143.123C143.173 3.72491 143.193 3.68357 143.171 3.64222L142.749 2.92279V2.92692ZM142.183 2.5548H141.9C141.888 2.5548 141.877 2.54446 141.877 2.53206V1.76301C141.877 1.7506 141.888 1.74027 141.9 1.74027H142.183C142.548 1.74027 142.604 1.99248 142.604 2.14133C142.604 2.26537 142.562 2.55687 142.183 2.55687V2.5548Z" fill="#0213B0"/>
</g>
<defs>
<clipPath id="clip0_416_13186">
<rect width="146.667" height="48" fill="white"/>
</clipPath>
</defs>
</svg>
